<svg width="1560" height="412" viewBox="0 0 1560 412" fill="none" xmlns="http://www.w3.org/2000/svg">
<rect width="1560" height="412" fill="url(#paint0_linear_130_2)"/>
<path d="M540.998 268L505.621 144.364H534.176L554.641 230.269H555.668L578.246 144.364H602.695L625.213 230.45H626.3L646.765 144.364H675.32L639.943 268H614.467L590.923 187.165H589.957L566.474 268H540.998ZM705.308 269.751C699.392 269.751 694.12 268.724 689.491 266.672C684.863 264.579 681.201 261.5 678.504 257.435C675.848 253.33 674.52 248.219 674.52 242.102C674.52 236.95 675.465 232.624 677.357 229.122C679.249 225.621 681.824 222.804 685.084 220.67C688.344 218.537 692.047 216.928 696.192 215.841C700.378 214.754 704.765 213.99 709.353 213.547C714.746 212.983 719.092 212.46 722.393 211.977C725.693 211.454 728.087 210.689 729.577 209.683C731.066 208.677 731.81 207.188 731.81 205.216V204.854C731.81 201.03 730.603 198.072 728.188 195.979C725.814 193.887 722.433 192.84 718.046 192.84C713.418 192.84 709.735 193.866 706.998 195.919C704.262 197.931 702.451 200.467 701.565 203.526L677.78 201.594C678.987 195.959 681.362 191.089 684.903 186.984C688.445 182.839 693.013 179.66 698.607 177.446C704.242 175.192 710.761 174.065 718.167 174.065C723.318 174.065 728.248 174.669 732.957 175.876C737.706 177.084 741.912 178.955 745.574 181.491C749.277 184.026 752.195 187.286 754.328 191.271C756.461 195.215 757.528 199.944 757.528 205.457V268H733.138V255.141H732.414C730.925 258.039 728.933 260.595 726.437 262.808C723.942 264.982 720.944 266.692 717.442 267.94C713.941 269.147 709.896 269.751 705.308 269.751ZM712.673 252.002C716.456 252.002 719.797 251.258 722.694 249.768C725.592 248.239 727.866 246.187 729.516 243.611C731.166 241.035 731.991 238.117 731.991 234.857V225.017C731.186 225.54 730.08 226.023 728.671 226.466C727.303 226.868 725.753 227.251 724.023 227.613C722.292 227.935 720.561 228.237 718.831 228.518C717.1 228.76 715.531 228.981 714.122 229.183C711.104 229.625 708.467 230.33 706.214 231.295C703.96 232.261 702.209 233.569 700.961 235.219C699.714 236.829 699.09 238.842 699.09 241.256C699.09 244.758 700.358 247.434 702.893 249.286C705.469 251.097 708.729 252.002 712.673 252.002ZM860.608 175.273L828.19 268H799.213L766.794 175.273H793.96L813.218 241.619H814.184L833.382 175.273H860.608ZM913.039 269.811C903.501 269.811 895.29 267.879 888.408 264.016C881.566 260.112 876.294 254.598 872.591 247.474C868.889 240.311 867.037 231.839 867.037 222.059C867.037 212.521 868.889 204.149 872.591 196.945C876.294 189.741 881.506 184.127 888.227 180.102C894.988 176.078 902.917 174.065 912.013 174.065C918.13 174.065 923.825 175.051 929.097 177.023C934.41 178.955 939.038 181.873 942.982 185.777C946.966 189.681 950.065 194.591 952.279 200.507C954.492 206.383 955.599 213.265 955.599 221.153V228.217H877.3V212.279H931.391C931.391 208.576 930.586 205.296 928.976 202.439C927.367 199.581 925.133 197.348 922.275 195.738C919.458 194.088 916.178 193.263 912.435 193.263C908.531 193.263 905.07 194.168 902.052 195.979C899.073 197.75 896.739 200.145 895.049 203.163C893.358 206.142 892.493 209.462 892.453 213.124V228.277C892.453 232.865 893.298 236.829 894.988 240.17C896.719 243.51 899.154 246.086 902.293 247.897C905.432 249.708 909.155 250.614 913.461 250.614C916.319 250.614 918.935 250.211 921.309 249.406C923.684 248.601 925.716 247.394 927.407 245.784C929.097 244.174 930.385 242.202 931.27 239.868L955.056 241.438C953.849 247.152 951.373 252.143 947.631 256.409C943.928 260.635 939.139 263.935 933.263 266.31C927.427 268.644 920.686 269.811 913.039 269.811ZM1049.53 201.714L1025.99 203.163C1025.59 201.151 1024.72 199.34 1023.39 197.73C1022.07 196.08 1020.32 194.772 1018.14 193.806C1016.01 192.8 1013.45 192.297 1010.47 192.297C1006.49 192.297 1003.13 193.142 1000.39 194.832C997.657 196.482 996.288 198.696 996.288 201.473C996.288 203.687 997.174 205.558 998.944 207.087C1000.72 208.617 1003.75 209.844 1008.06 210.77L1024.84 214.151C1033.86 216.002 1040.58 218.98 1045.01 223.085C1049.43 227.19 1051.65 232.583 1051.65 239.264C1051.65 245.341 1049.86 250.674 1046.27 255.262C1042.73 259.85 1037.86 263.432 1031.66 266.008C1025.51 268.543 1018.4 269.811 1010.35 269.811C998.079 269.811 988.299 267.255 981.015 262.144C973.77 256.993 969.524 249.99 968.277 241.136L993.572 239.808C994.336 243.55 996.188 246.408 999.126 248.38C1002.06 250.312 1005.83 251.278 1010.41 251.278C1014.92 251.278 1018.54 250.412 1021.28 248.682C1024.06 246.911 1025.47 244.637 1025.51 241.86C1025.47 239.526 1024.48 237.614 1022.55 236.125C1020.62 234.596 1017.64 233.429 1013.61 232.624L997.556 229.424C988.501 227.613 981.759 224.474 977.332 220.006C972.945 215.539 970.752 209.844 970.752 202.922C970.752 196.965 972.362 191.834 975.581 187.528C978.841 183.221 983.409 179.901 989.285 177.567C995.202 175.232 1002.12 174.065 1010.05 174.065C1021.76 174.065 1030.98 176.54 1037.7 181.491C1044.46 186.441 1048.41 193.182 1049.53 201.714Z" fill="url(#paint1_linear_130_2)"/>
<defs>
<linearGradient id="paint0_linear_130_2" x1="-1.16229e-05" y1="206" x2="1560" y2="206" gradientUnits="userSpaceOnUse">
<stop/>
<stop offset="1" stop-color="#1C0F2D"/>
</linearGradient>
<linearGradient id="paint1_linear_130_2" x1="502" y1="206" x2="1058" y2="206" gradientUnits="userSpaceOnUse">
<stop stop-color="white"/>
<stop offset="1" stop-color="#AC6BFF"/>
</linearGradient>
</defs>
</svg>
