<svg width="1560" height="512" viewBox="0 0 1560 512" fill="none" xmlns="http://www.w3.org/2000/svg">
<rect width="1560" height="512" fill="url(#paint0_linear_114_3)"/>
<path d="M554.557 314L521.261 197.636H548.136L567.398 278.489H568.364L589.614 197.636H612.625L633.818 278.659H634.841L654.102 197.636H680.977L647.682 314H623.705L601.545 237.92H600.636L578.534 314H554.557ZM709.202 315.648C703.634 315.648 698.671 314.682 694.315 312.75C689.959 310.78 686.512 307.883 683.974 304.057C681.474 300.193 680.224 295.383 680.224 289.625C680.224 284.777 681.115 280.705 682.895 277.409C684.675 274.114 687.099 271.462 690.168 269.455C693.236 267.447 696.721 265.932 700.622 264.909C704.562 263.886 708.69 263.167 713.009 262.75C718.084 262.22 722.175 261.727 725.281 261.273C728.387 260.78 730.641 260.061 732.043 259.114C733.444 258.167 734.145 256.765 734.145 254.909V254.568C734.145 250.97 733.009 248.186 730.736 246.216C728.501 244.246 725.319 243.261 721.19 243.261C716.834 243.261 713.368 244.227 710.793 246.159C708.217 248.053 706.512 250.439 705.679 253.318L683.293 251.5C684.429 246.197 686.664 241.614 689.997 237.75C693.33 233.848 697.63 230.856 702.895 228.773C708.198 226.652 714.334 225.591 721.304 225.591C726.152 225.591 730.793 226.159 735.224 227.295C739.694 228.432 743.652 230.193 747.099 232.58C750.584 234.966 753.33 238.034 755.338 241.784C757.346 245.496 758.349 249.947 758.349 255.136V314H735.395V301.898H734.713C733.312 304.625 731.437 307.03 729.088 309.114C726.74 311.159 723.918 312.769 720.622 313.943C717.327 315.08 713.52 315.648 709.202 315.648ZM716.134 298.943C719.694 298.943 722.838 298.242 725.565 296.841C728.293 295.402 730.433 293.47 731.986 291.045C733.539 288.621 734.315 285.875 734.315 282.807V273.545C733.558 274.038 732.516 274.492 731.19 274.909C729.902 275.288 728.444 275.648 726.815 275.989C725.187 276.292 723.558 276.576 721.929 276.841C720.3 277.068 718.823 277.277 717.497 277.466C714.656 277.883 712.175 278.545 710.054 279.455C707.933 280.364 706.285 281.595 705.111 283.148C703.937 284.663 703.349 286.557 703.349 288.83C703.349 292.125 704.543 294.644 706.929 296.386C709.353 298.091 712.421 298.943 716.134 298.943ZM855.366 226.727L824.855 314H797.582L767.071 226.727H792.639L810.764 289.17H811.673L829.741 226.727H855.366ZM904.713 315.705C895.736 315.705 888.009 313.886 881.531 310.25C875.092 306.576 870.13 301.386 866.645 294.682C863.16 287.939 861.418 279.966 861.418 270.761C861.418 261.784 863.16 253.905 866.645 247.125C870.13 240.345 875.035 235.061 881.361 231.273C887.724 227.485 895.187 225.591 903.747 225.591C909.505 225.591 914.865 226.519 919.827 228.375C924.827 230.193 929.183 232.939 932.895 236.614C936.645 240.288 939.562 244.909 941.645 250.477C943.728 256.008 944.77 262.485 944.77 269.909V276.557H871.077V261.557H921.986C921.986 258.072 921.228 254.985 919.713 252.295C918.198 249.606 916.096 247.504 913.406 245.989C910.755 244.436 907.668 243.659 904.145 243.659C900.471 243.659 897.213 244.511 894.372 246.216C891.569 247.883 889.372 250.136 887.781 252.977C886.19 255.78 885.376 258.905 885.338 262.352V276.614C885.338 280.932 886.134 284.663 887.724 287.807C889.353 290.951 891.645 293.375 894.599 295.08C897.554 296.784 901.058 297.636 905.111 297.636C907.8 297.636 910.262 297.258 912.497 296.5C914.732 295.742 916.645 294.606 918.236 293.091C919.827 291.576 921.039 289.72 921.872 287.523L944.259 289C943.122 294.379 940.793 299.076 937.27 303.091C933.785 307.068 929.277 310.174 923.747 312.409C918.255 314.606 911.91 315.705 904.713 315.705ZM1033.18 251.614L1011.02 252.977C1010.64 251.083 1009.83 249.379 1008.58 247.864C1007.33 246.311 1005.68 245.08 1003.63 244.17C1001.63 243.223 999.221 242.75 996.418 242.75C992.668 242.75 989.505 243.545 986.929 245.136C984.353 246.689 983.065 248.773 983.065 251.386C983.065 253.47 983.899 255.231 985.565 256.67C987.232 258.11 990.092 259.265 994.145 260.136L1009.94 263.318C1018.43 265.061 1024.75 267.864 1028.92 271.727C1033.08 275.591 1035.17 280.667 1035.17 286.955C1035.17 292.674 1033.48 297.693 1030.11 302.011C1026.78 306.33 1022.19 309.701 1016.36 312.125C1010.57 314.511 1003.88 315.705 996.304 315.705C984.751 315.705 975.546 313.299 968.69 308.489C961.872 303.64 957.876 297.049 956.702 288.716L980.509 287.466C981.228 290.989 982.971 293.678 985.736 295.534C988.501 297.352 992.043 298.261 996.361 298.261C1000.6 298.261 1004.01 297.447 1006.59 295.818C1009.2 294.152 1010.53 292.011 1010.57 289.398C1010.53 287.201 1009.6 285.402 1007.78 284C1005.96 282.561 1003.16 281.462 999.372 280.705L984.259 277.693C975.736 275.989 969.391 273.034 965.224 268.83C961.096 264.625 959.031 259.265 959.031 252.75C959.031 247.144 960.546 242.314 963.577 238.261C966.645 234.208 970.944 231.083 976.474 228.886C982.043 226.689 988.558 225.591 996.02 225.591C1007.04 225.591 1015.72 227.92 1022.04 232.58C1028.41 237.239 1032.12 243.583 1033.18 251.614Z" fill="url(#paint1_linear_114_3)"/>
<defs>
<linearGradient id="paint0_linear_114_3" x1="-1.16229e-05" y1="256" x2="1560" y2="256" gradientUnits="userSpaceOnUse">
<stop/>
<stop offset="1" stop-color="#1C0F2D"/>
</linearGradient>
<linearGradient id="paint1_linear_114_3" x1="518" y1="256" x2="1041" y2="256" gradientUnits="userSpaceOnUse">
<stop stop-color="white"/>
<stop offset="1" stop-color="#AC6BFF"/>
</linearGradient>
</defs>
</svg>
